<svg width="32" height="32" viewBox="0 0 32 32" fill="none" xmlns="http://www.w3.org/2000/svg">
<path d="M31.872 0.27678C31.8157 0.19127 31.7444 0.122056 31.6633 0.0741774C31.5821 0.0262982 31.4932 0.000957872 31.403 0H25.1859C24.9 0 24.6542 0.243323 24.6016 0.583975L22.199 15.3902L18.8209 0.529227C18.8008 0.441023 18.7657 0.364984 18.723 0.295029C18.7205 0.291987 18.7205 0.282863 18.7155 0.279821C18.708 0.267655 18.6955 0.264614 18.6879 0.252447C18.6453 0.191617 18.5951 0.142952 18.5375 0.103412C18.5174 0.0912458 18.4998 0.0760382 18.4798 0.0669136C18.407 0.0273736 18.3293 0 18.244 0H13.7524C13.6696 0 13.5894 0.0273736 13.5166 0.0669136C13.4966 0.0790797 13.479 0.0912458 13.459 0.103412C13.4013 0.142952 13.3511 0.191617 13.3085 0.252447C13.2985 0.264614 13.2884 0.267655 13.2809 0.279821C13.2784 0.285904 13.2784 0.291987 13.2734 0.295029C13.2307 0.364984 13.1956 0.444064 13.1756 0.529227L9.80244 15.3902L7.39736 0.583975C7.37041 0.419852 7.29752 0.272066 7.19103 0.165645C7.08454 0.0592231 6.951 0.000705257 6.81302 0H0.598436C0.41536 0 0.239807 0.103412 0.129459 0.27678C0.0140953 0.450147 -0.0260311 0.681304 0.0166032 0.894211L6.23369 31.4464C6.2362 31.4556 6.24372 31.4647 6.24372 31.4769C6.25877 31.5346 6.27633 31.5864 6.30141 31.6381C6.30893 31.6533 6.31395 31.6685 6.32398 31.6837C6.32899 31.6928 6.3315 31.7019 6.33902 31.7111C6.36912 31.7597 6.40172 31.7993 6.44185 31.8388C6.44686 31.8449 6.45439 31.8479 6.46191 31.854C6.50204 31.8905 6.54718 31.9209 6.59483 31.9422C6.60737 31.9483 6.62242 31.9544 6.63746 31.9605C6.69264 31.9818 6.75283 31.997 6.81302 31.997H11.7736C11.8564 31.997 11.9316 31.9726 12.0044 31.9331C12.0244 31.9209 12.042 31.9088 12.0621 31.8966C12.1122 31.8601 12.1599 31.8175 12.2 31.7628C12.21 31.7506 12.2251 31.7445 12.2351 31.7323C12.2401 31.7232 12.2401 31.7141 12.2451 31.705C12.2928 31.6289 12.3304 31.5468 12.3505 31.4525L15.9995 14.2374L19.6485 31.4556C19.6685 31.5499 19.7061 31.632 19.7538 31.708C19.7588 31.7171 19.7588 31.7263 19.7663 31.7354C19.7739 31.7476 19.7889 31.7536 19.7989 31.7658C19.8391 31.8205 19.8842 31.8631 19.9369 31.8996C19.9569 31.9118 19.9745 31.927 19.9946 31.9361C20.0673 31.9726 20.1425 32 20.2253 32H25.1859C25.2461 32 25.3038 31.9848 25.3615 31.9635C25.3765 31.9574 25.3891 31.9513 25.4066 31.9453C25.4517 31.924 25.4969 31.8935 25.5395 31.857C25.547 31.851 25.5521 31.8479 25.5596 31.8418C25.5972 31.8053 25.6323 31.7628 25.6624 31.7141C25.6674 31.705 25.6699 31.6958 25.6775 31.6867C25.685 31.6715 25.69 31.6563 25.7 31.6411C25.7226 31.5894 25.7427 31.5377 25.7577 31.4799C25.7602 31.4708 25.7677 31.4616 25.7677 31.4495L31.9848 0.897253C32.025 0.681304 31.9848 0.450147 31.872 0.27678Z" fill="#6D7ECF"/>
</svg>
