<svg width="377" height="82" viewBox="0 0 377 82" fill="none" xmlns="http://www.w3.org/2000/svg">
<path d="M89.1842 0.709248C89.0267 0.490129 88.8272 0.31277 88.6002 0.190079C88.3732 0.0673892 88.1244 0.00245455 87.8719 0H70.4753C69.6753 0 68.9875 0.623515 68.8402 1.49644L62.1173 39.4373L52.6646 1.35614C52.6084 1.13012 52.5102 0.935272 52.3909 0.756011C52.3839 0.748217 52.3839 0.724836 52.3698 0.717042C52.3488 0.685866 52.3137 0.678072 52.2926 0.646897C52.1733 0.491018 52.033 0.366314 51.8716 0.264993C51.8154 0.233817 51.7663 0.194848 51.7102 0.171466C51.5067 0.0701449 51.2891 0 51.0505 0H38.482C38.2504 0 38.0258 0.0701449 37.8223 0.171466C37.7662 0.202642 37.717 0.233817 37.6609 0.264993C37.4995 0.366314 37.3591 0.491018 37.2398 0.646897C37.2118 0.678072 37.1837 0.685866 37.1626 0.717042C37.1556 0.73263 37.1556 0.748217 37.1416 0.756011C37.0223 0.935272 36.924 1.13791 36.8679 1.35614L27.4292 39.4373L20.6993 1.49644C20.6239 1.07587 20.4199 0.69717 20.122 0.424465C19.824 0.151759 19.4503 0.00180722 19.0642 0H1.67455C1.16226 0 0.671027 0.264994 0.362252 0.709248C0.0394416 1.1535 -0.0728403 1.74584 0.0464592 2.29142L17.4431 80.5815C17.4502 80.6049 17.4712 80.6283 17.4712 80.6594C17.5133 80.8075 17.5624 80.94 17.6326 81.0725C17.6537 81.1115 17.6677 81.1505 17.6958 81.1894C17.7098 81.2128 17.7168 81.2362 17.7379 81.2596C17.8221 81.3843 17.9133 81.4856 18.0256 81.5869C18.0396 81.6025 18.0607 81.6103 18.0817 81.6259C18.194 81.7194 18.3203 81.7974 18.4537 81.8519C18.4888 81.8675 18.5309 81.8831 18.573 81.8987C18.7274 81.9532 18.8958 81.9922 19.0642 81.9922H32.9451C33.1766 81.9922 33.3872 81.9299 33.5907 81.8285C33.6468 81.7974 33.6959 81.7662 33.7521 81.735C33.8924 81.6415 34.0258 81.5324 34.138 81.3921C34.1661 81.3609 34.2082 81.3453 34.2363 81.3141C34.2503 81.2907 34.2503 81.2674 34.2644 81.244C34.3977 81.0491 34.503 80.8387 34.5591 80.5971L44.7697 36.4834L54.9804 80.6049C55.0365 80.8465 55.1418 81.0569 55.2751 81.2518C55.2892 81.2752 55.2891 81.2985 55.3102 81.3219C55.3313 81.3531 55.3734 81.3687 55.4014 81.3999C55.5137 81.5402 55.64 81.6493 55.7874 81.7428C55.8435 81.774 55.8927 81.8129 55.9488 81.8363C56.1523 81.9298 56.3628 82 56.5944 82H70.4753C70.6437 82 70.8051 81.961 70.9665 81.9065C71.0086 81.8909 71.0437 81.8753 71.0928 81.8597C71.2191 81.8051 71.3455 81.7272 71.4648 81.6337C71.4858 81.6181 71.4998 81.6103 71.5209 81.5947C71.6262 81.5012 71.7244 81.3921 71.8086 81.2674C71.8227 81.244 71.8297 81.2206 71.8507 81.1972C71.8718 81.1582 71.8858 81.1193 71.9139 81.0803C71.977 80.9478 72.0332 80.8153 72.0753 80.6672C72.0823 80.6438 72.1034 80.6205 72.1034 80.5893L89.5 2.29921C89.6123 1.74584 89.5 1.1535 89.1842 0.709248Z" fill="#6D7ECF"/>
<path d="M148.625 16.4855C149.491 16.4855 150.202 15.7079 150.202 14.7437V1.74187C150.202 0.777619 149.491 0 148.625 0H99.4984C98.6255 0 97.9216 0.777619 97.9216 1.74187V80.2581C97.9216 81.2224 98.6255 82 99.4984 82H148.632C149.498 82 150.209 81.2224 150.209 80.2581V67.2563C150.209 66.2921 149.498 65.5145 148.632 65.5145H116.491V48.3679H141.213C142.079 48.3679 142.79 47.5903 142.79 46.6261V33.6243C142.79 32.66 142.079 31.8824 141.213 31.8824H116.491V16.4855H148.625Z" fill="#6D7ECF"/>
<path d="M238.907 79.621L209.815 1.13845C209.691 0.803421 209.468 0.514908 209.178 0.311474C208.887 0.108039 208.543 -0.00062561 208.19 2.70948e-06H190.111C189.383 2.70948e-06 188.741 0.455383 188.486 1.13845L159.394 79.621C159.193 80.1628 159.262 80.7673 159.587 81.2384C159.912 81.7095 160.439 82 161.011 82H180.081C180.824 82 181.489 81.5132 181.729 80.7909L186.141 67.3022H212.152L216.571 80.7909C216.804 81.5132 217.469 82 218.22 82H237.289C237.57 82 237.846 81.9309 238.094 81.7987C238.342 81.6666 238.555 81.4753 238.714 81.2412C238.873 81.0072 238.973 80.7375 239.007 80.4553C239.041 80.1731 239.006 79.8868 238.907 79.621ZM191.589 50.6494L199.15 27.5506L206.712 50.6572H191.589V50.6494Z" fill="#6D7ECF"/>
<path d="M303.265 0.791102C303.108 0.547358 302.901 0.348312 302.659 0.210663C302.418 0.0730137 302.15 0.000775031 301.877 4.07317e-06H285.919C285.218 4.07317e-06 284.589 0.469963 284.338 1.18273L266.964 50.7712L249.59 1.18273C249.466 0.833812 249.249 0.534048 248.967 0.322925C248.685 0.111801 248.351 -0.000780521 248.009 4.07317e-06H232.058C231.785 -0.000159681 231.517 0.0717403 231.276 0.209586C231.034 0.347431 230.826 0.547141 230.67 0.79172C230.515 1.0363 230.415 1.31851 230.38 1.61433C230.345 1.91016 230.376 2.21084 230.47 2.49079L256.9 80.7859C256.907 80.7859 256.907 80.7859 256.907 80.7938C256.95 80.9348 257.022 81.0679 257.1 81.1932C257.115 81.2089 257.129 81.2246 257.136 81.2402C257.165 81.2872 257.208 81.3264 257.236 81.3656C257.308 81.4517 257.379 81.53 257.465 81.6084C257.508 81.6475 257.551 81.6789 257.601 81.7102C257.694 81.7729 257.787 81.8199 257.887 81.8669C257.937 81.8825 257.98 81.906 258.023 81.9217C258.173 81.9687 258.331 82 258.495 82H275.455C275.619 82 275.776 81.9687 275.92 81.9217C275.97 81.906 276.012 81.8825 276.063 81.8669C276.163 81.8199 276.256 81.7729 276.349 81.7102C276.399 81.6789 276.442 81.6475 276.485 81.6084C276.57 81.5379 276.642 81.4595 276.713 81.3656C276.749 81.3264 276.785 81.2872 276.814 81.2402C276.828 81.2246 276.842 81.2167 276.849 81.1932C276.928 81.0679 276.992 80.9348 277.043 80.7938V80.7859L303.473 2.49079C303.651 1.919 303.58 1.28456 303.265 0.791102Z" fill="#6D7ECF"/>
<path d="M376.816 0.982598C376.682 0.687295 376.482 0.44049 376.237 0.268731C375.993 0.0969723 375.713 0.00675997 375.428 0.00779892H360.615C360.104 0.00779892 359.619 0.304137 359.327 0.803234L343.013 28.3159L326.693 0.795437C326.549 0.549898 326.357 0.349138 326.132 0.210538C325.908 0.0719386 325.658 -0.000325628 325.404 1.10303e-06H310.592C310.014 1.10303e-06 309.482 0.374324 309.21 0.974799C308.938 1.57527 308.971 2.30832 309.29 2.86981L333.588 45.4178V80.183C333.588 81.189 334.285 82 335.142 82H350.891C351.748 82 352.445 81.189 352.445 80.183V45.4256L376.736 2.8776C377.055 2.31612 377.088 1.58307 376.816 0.982598Z" fill="#6D7ECF"/>
</svg>
