<svg width="400" height="82" viewBox="0 0 400 82" fill="none" xmlns="http://www.w3.org/2000/svg">
<path d="M89.1842 0.709248C89.0267 0.490129 88.8272 0.31277 88.6002 0.190079C88.3732 0.0673892 88.1244 0.00245455 87.872 0H70.4753C69.6753 0 68.9875 0.623515 68.8402 1.49644L62.1173 39.4373L52.6646 1.35614C52.6084 1.13012 52.5102 0.935272 52.3909 0.756011C52.3839 0.748217 52.3839 0.724836 52.3698 0.717042C52.3488 0.685866 52.3137 0.678072 52.2926 0.646897C52.1733 0.491018 52.033 0.366314 51.8716 0.264993C51.8154 0.233817 51.7663 0.194848 51.7102 0.171466C51.5067 0.0701449 51.2891 0 51.0505 0H38.482C38.2504 0 38.0258 0.0701449 37.8223 0.171466C37.7662 0.202642 37.717 0.233817 37.6609 0.264993C37.4995 0.366314 37.3591 0.491018 37.2398 0.646897C37.2118 0.678072 37.1837 0.685866 37.1626 0.717042C37.1556 0.73263 37.1556 0.748217 37.1416 0.756011C37.0223 0.935272 36.924 1.13791 36.8679 1.35614L27.4292 39.4373L20.6993 1.49644C20.6239 1.07587 20.4199 0.69717 20.122 0.424465C19.824 0.151759 19.4503 0.00180722 19.0642 0H1.67455C1.16226 0 0.671027 0.264994 0.362252 0.709248C0.0394416 1.1535 -0.0728403 1.74584 0.0464592 2.29142L17.4431 80.5815C17.4502 80.6049 17.4712 80.6283 17.4712 80.6594C17.5133 80.8075 17.5624 80.94 17.6326 81.0725C17.6537 81.1115 17.6677 81.1505 17.6958 81.1894C17.7098 81.2128 17.7168 81.2362 17.7379 81.2596C17.8221 81.3843 17.9133 81.4856 18.0256 81.5869C18.0396 81.6025 18.0607 81.6103 18.0817 81.6259C18.194 81.7194 18.3203 81.7974 18.4537 81.8519C18.4888 81.8675 18.5309 81.8831 18.573 81.8987C18.7274 81.9532 18.8958 81.9922 19.0642 81.9922H32.9451C33.1766 81.9922 33.3872 81.9299 33.5907 81.8285C33.6468 81.7974 33.6959 81.7662 33.7521 81.735C33.8924 81.6415 34.0258 81.5324 34.138 81.3921C34.1661 81.3609 34.2082 81.3453 34.2363 81.3141C34.2503 81.2907 34.2503 81.2674 34.2644 81.244C34.3977 81.0491 34.503 80.8387 34.5591 80.5971L44.7697 36.4834L54.9804 80.6049C55.0365 80.8465 55.1418 81.0569 55.2751 81.2518C55.2891 81.2752 55.2891 81.2985 55.3102 81.3219C55.3313 81.3531 55.3734 81.3687 55.4014 81.3999C55.5137 81.5402 55.64 81.6493 55.7874 81.7428C55.8435 81.774 55.8927 81.8129 55.9488 81.8363C56.1523 81.9298 56.3628 82 56.5944 82H70.4753C70.6437 82 70.8051 81.961 70.9665 81.9065C71.0086 81.8909 71.0437 81.8753 71.0928 81.8597C71.2191 81.8051 71.3455 81.7272 71.4648 81.6337C71.4858 81.6181 71.4998 81.6103 71.5209 81.5947C71.6262 81.5012 71.7244 81.3921 71.8086 81.2674C71.8227 81.244 71.8297 81.2206 71.8507 81.1972C71.8718 81.1582 71.8858 81.1193 71.9139 81.0803C71.977 80.9478 72.0332 80.8153 72.0753 80.6672C72.0823 80.6438 72.1034 80.6205 72.1034 80.5893L89.5 2.29921C89.6123 1.74584 89.5 1.1535 89.1842 0.709248Z" fill="#6D7ECF"/>
<path d="M154.625 16.4855C155.491 16.4855 156.202 15.7079 156.202 14.7437V1.74187C156.202 0.777619 155.491 0 154.625 0H105.498C104.625 0 103.922 0.777619 103.922 1.74187V80.2581C103.922 81.2224 104.625 82 105.498 82H154.632C155.498 82 156.209 81.2224 156.209 80.2581V67.2563C156.209 66.2921 155.498 65.5145 154.632 65.5145H122.491V48.3679H147.213C148.079 48.3679 148.79 47.5903 148.79 46.6261V33.6243C148.79 32.66 148.079 31.8824 147.213 31.8824H122.491V16.4855H154.625Z" fill="#6D7ECF"/>
<path d="M248.907 79.621L219.815 1.13845C219.691 0.803421 219.468 0.514908 219.178 0.311474C218.887 0.108039 218.543 -0.00062561 218.19 2.70948e-06H200.111C199.383 2.70948e-06 198.741 0.455383 198.486 1.13845L169.394 79.621C169.193 80.1628 169.262 80.7673 169.587 81.2384C169.912 81.7095 170.439 82 171.011 82H190.081C190.824 82 191.489 81.5132 191.729 80.7909L196.141 67.3022H222.152L226.571 80.7909C226.804 81.5132 227.469 82 228.22 82H247.289C247.57 82 247.846 81.9309 248.094 81.7987C248.342 81.6666 248.555 81.4752 248.714 81.2412C248.873 81.0072 248.973 80.7375 249.007 80.4553C249.041 80.1731 249.006 79.8868 248.907 79.621ZM201.589 50.6494L209.15 27.5506L216.712 50.6572H201.589V50.6494Z" fill="#6D7ECF"/>
<path d="M321.265 0.791102C321.108 0.547358 320.901 0.348312 320.659 0.210663C320.418 0.0730137 320.15 0.000775031 319.877 4.07317e-06H303.919C303.218 4.07317e-06 302.589 0.469963 302.338 1.18273L284.964 50.7712L267.59 1.18273C267.466 0.833812 267.249 0.534048 266.967 0.322925C266.685 0.111801 266.351 -0.000780521 266.009 4.07317e-06H250.058C249.785 -0.000159681 249.517 0.0717403 249.276 0.209586C249.034 0.347431 248.826 0.547141 248.67 0.79172C248.515 1.0363 248.415 1.31851 248.38 1.61433C248.345 1.91016 248.376 2.21084 248.47 2.49079L274.9 80.7859C274.907 80.7859 274.907 80.7859 274.907 80.7938C274.95 80.9348 275.022 81.0679 275.1 81.1932C275.115 81.2089 275.129 81.2246 275.136 81.2402C275.165 81.2872 275.208 81.3264 275.236 81.3656C275.308 81.4517 275.379 81.53 275.465 81.6084C275.508 81.6475 275.551 81.6789 275.601 81.7102C275.694 81.7729 275.787 81.8199 275.887 81.8668C275.937 81.8825 275.98 81.906 276.023 81.9217C276.173 81.9687 276.331 82 276.495 82H293.455C293.619 82 293.776 81.9687 293.92 81.9217C293.97 81.906 294.012 81.8825 294.063 81.8668C294.163 81.8199 294.256 81.7729 294.349 81.7102C294.399 81.6789 294.442 81.6475 294.485 81.6084C294.57 81.5379 294.642 81.4596 294.713 81.3656C294.749 81.3264 294.785 81.2872 294.814 81.2402C294.828 81.2246 294.842 81.2167 294.849 81.1932C294.928 81.0679 294.992 80.9348 295.043 80.7938V80.7859L321.473 2.49079C321.651 1.919 321.58 1.28456 321.265 0.791102Z" fill="#6D7ECF"/>
<path d="M399.816 0.982598C399.682 0.687295 399.482 0.44049 399.237 0.268731C398.993 0.0969723 398.713 0.00675997 398.428 0.00779892H383.615C383.104 0.00779892 382.619 0.304137 382.327 0.803234L366.013 28.3159L349.693 0.795437C349.549 0.549898 349.357 0.349138 349.132 0.210538C348.908 0.0719386 348.658 -0.000325628 348.404 1.10303e-06H333.592C333.014 1.10303e-06 332.482 0.374324 332.21 0.974799C331.938 1.57527 331.971 2.30832 332.29 2.86981L356.588 45.4178V80.183C356.588 81.189 357.285 82 358.142 82H373.891C374.748 82 375.445 81.189 375.445 80.183V45.4256L399.736 2.8776C400.055 2.31612 400.088 1.58307 399.816 0.982598Z" fill="#6D7ECF"/>
</svg>
